<svg width="18" height="18" viewBox="0 0 18 18" fill="none" xmlns="http://www.w3.org/2000/svg">
<path id="Vector" d="M17 8.99956H6.3146M2.54292 8.99956H1M2.54292 8.99956C2.54292 8.49952 2.74156 8.01996 3.09514 7.66638C3.44872 7.3128 3.92828 7.11416 4.42832 7.11416C4.92837 7.11416 5.40793 7.3128 5.76151 7.66638C6.11509 8.01996 6.31373 8.49952 6.31373 8.99956C6.31373 9.4996 6.11509 9.97916 5.76151 10.3327C5.40793 10.6863 4.92837 10.885 4.42832 10.885C3.92828 10.885 3.44872 10.6863 3.09514 10.3327C2.74156 9.97916 2.54292 9.4996 2.54292 8.99956ZM17 14.7137H12.0288M12.0288 14.7137C12.0288 15.2139 11.8296 15.694 11.476 16.0476C11.1223 16.4013 10.6426 16.6 10.1425 16.6C9.64245 16.6 9.16289 16.4005 8.8093 16.0469C8.45572 15.6933 8.25708 15.2138 8.25708 14.7137M12.0288 14.7137C12.0288 14.2136 11.8296 13.7343 11.476 13.3807C11.1223 13.027 10.6426 12.8283 10.1425 12.8283C9.64245 12.8283 9.16289 13.027 8.8093 13.3805C8.45572 13.7341 8.25708 14.2137 8.25708 14.7137M8.25708 14.7137H1M17 3.2854H14.3146M10.5429 3.2854H1M10.5429 3.2854C10.5429 2.78536 10.7416 2.3058 11.0951 1.95222C11.4487 1.59863 11.9283 1.39999 12.4283 1.39999C12.6759 1.39999 12.9211 1.44876 13.1498 1.54351C13.3786 1.63826 13.5864 1.77714 13.7615 1.95222C13.9366 2.12729 14.0755 2.33514 14.1702 2.56389C14.265 2.79263 14.3137 3.0378 14.3137 3.2854C14.3137 3.53299 14.265 3.77816 14.1702 4.00691C14.0755 4.23566 13.9366 4.44351 13.7615 4.61858C13.5864 4.79366 13.3786 4.93254 13.1498 5.02729C12.9211 5.12204 12.6759 5.1708 12.4283 5.1708C11.9283 5.1708 11.4487 4.97216 11.0951 4.61858C10.7416 4.265 10.5429 3.78544 10.5429 3.2854Z" stroke="#6B75E9" stroke-width="1.5" stroke-miterlimit="10" stroke-linecap="round"/>
</svg>
