<svg width="53" height="24" viewBox="0 0 53 24" fill="none" xmlns="http://www.w3.org/2000/svg">
<g clip-path="url(#clip0_1445_2672)">
<path d="M25.1671 4.18651C24.9759 3.99776 24.737 3.89612 24.4342 3.89612H7.9287C7.62599 3.89612 7.37108 3.99776 7.19583 4.18651C7.00464 4.37527 6.92498 4.60758 6.97278 4.88345L8.15175 15.2069C8.21547 15.8167 8.77309 16.5718 9.33071 16.8912L15.1618 20.0274C15.4327 20.1726 15.815 20.2598 16.1974 20.2598C16.5957 20.2598 16.9621 20.1726 17.233 20.0274L23.0641 16.8912C23.6376 16.6008 24.1634 15.8167 24.2431 15.2069L25.422 4.88345C25.422 4.63662 25.3583 4.37527 25.1671 4.18651ZM20.3875 15.628C19.9096 15.9184 19.2723 15.8022 18.9536 15.3812L15.9744 11.3883L14.174 13.029V14.8439C14.174 15.3666 13.712 15.7877 13.1385 15.7877C12.5649 15.7877 12.1029 15.3666 12.1029 14.8439V6.97428C12.1029 6.45157 12.5649 6.03051 13.1385 6.03051C13.712 6.03051 14.174 6.45157 14.174 6.97428V10.3574L18.6191 6.30638C19.0174 5.94339 19.6865 5.94339 20.0848 6.30638C20.4831 6.66937 20.4831 7.27919 20.0848 7.64219L17.456 10.0234C17.456 10.0379 17.472 10.0379 17.472 10.0524L20.6584 14.3067C20.977 14.7423 20.8496 15.3231 20.3875 15.628Z" fill="#5D2E8E"/>
<path fill-rule="evenodd" clip-rule="evenodd" d="M52.5 7.2363V16.8575C52.5 18.1531 51.6683 19.2151 50.6537 19.2151H25.521L25.5875 18.1956H50.6537C51.2192 18.1956 51.7016 17.5797 51.7016 16.8575V7.19383C51.7016 6.4717 51.2192 5.85577 50.6537 5.85577H26.6022L26.6687 4.8363H50.6537C51.6683 4.8363 52.5 5.89825 52.5 7.2363Z" fill="#5D2E8E"/>
<path fill-rule="evenodd" clip-rule="evenodd" d="M28.6989 9.42388C28.6989 9.27521 28.6324 9.21149 28.5326 9.21149H28.2V8.3407H28.9651C29.331 8.3407 29.4973 8.46813 29.4973 8.95663V12.3761H29.8633C30.013 12.3761 30.1959 12.3124 30.2957 12.1637L31.2605 10.4646H32.1586L31.0442 12.3973C30.8446 12.6947 30.7282 12.8009 30.7282 12.8009V12.8221C30.7282 12.8221 30.8779 12.8858 30.9943 13.2257L31.5931 14.6487C31.6596 14.7973 31.7428 14.8611 31.959 14.8611H32.1919V15.7106H31.6097C31.2272 15.7106 31.1108 15.6257 30.9278 15.2221L30.1793 13.4593C30.0795 13.2681 29.9132 13.2469 29.7635 13.2469H29.4474V15.7318H28.649L28.6989 9.42388Z" fill="#5D2E8E"/>
<path fill-rule="evenodd" clip-rule="evenodd" d="M33.0053 9.44525C33.0053 9.29657 32.9388 9.23286 32.839 9.23286H32.5063V8.36206H33.2715C33.6374 8.36206 33.8037 8.55321 33.8037 8.99923V11.0594C33.8037 11.3143 33.7871 11.4842 33.7871 11.4842H33.8037C33.9701 10.9532 34.5023 10.316 35.3174 10.316C36.2821 10.316 36.7145 10.9957 36.7145 12.355V14.6275C36.7145 14.7762 36.7811 14.8399 36.8809 14.8399H37.2135V15.6895H36.4484C36.0825 15.6895 35.9161 15.4983 35.9161 15.0098V12.5886C35.9161 11.8452 35.7997 11.2718 35.151 11.2718C34.519 11.2718 34.02 11.824 33.8536 12.5674C33.8037 12.7798 33.7871 13.0346 33.7871 13.2683V15.732H32.9887L33.0053 9.44525Z" fill="#5D2E8E"/>
<path d="M39.36 15.031C40.042 15.031 40.4744 14.1389 40.4744 13.3743V13.1832H40.2748C39.676 13.1832 38.6115 13.2044 38.6115 14.2026C38.5782 14.6487 38.8444 15.031 39.36 15.031ZM40.2748 12.4611H40.4412V12.3973C40.4412 11.4841 40.175 11.1442 39.5263 11.1442C39.3267 11.1442 38.8444 11.208 38.8444 11.5478V11.8451H38.0959V11.3141C38.0959 10.4434 39.1271 10.3372 39.5097 10.3372C40.8403 10.3372 41.1896 11.2292 41.1896 12.3973V14.6487C41.1896 14.7973 41.2562 14.8823 41.356 14.8823H41.6886V15.7318H40.9401C40.5742 15.7318 40.4412 15.5195 40.4412 15.1159C40.4412 14.9248 40.4578 14.8186 40.4578 14.8186H40.4412C40.4412 14.8186 40.1085 15.8593 39.1438 15.8593C38.4452 15.8593 37.7466 15.3071 37.7466 14.2664C37.7798 12.5885 39.5929 12.4611 40.2748 12.4611Z" fill="#5D2E8E"/>
<path fill-rule="evenodd" clip-rule="evenodd" d="M42.3862 9.27522H42.0203V8.40442H42.7854C43.1513 8.40442 43.3176 8.59557 43.3176 9.08406V14.6487C43.3176 14.7973 43.3842 14.8611 43.484 14.8611H43.8166V15.7106H43.0515C42.6856 15.7106 42.5193 15.5195 42.5193 15.031V9.4876C42.5359 9.4876 42.5525 9.27522 42.3862 9.27522Z" fill="#5D2E8E"/>
<path fill-rule="evenodd" clip-rule="evenodd" d="M44.7156 11.2717H44.1833V10.4646H44.7322V8.99915H45.4974V10.4646H46.4787V11.2717H45.514V13.6717C45.514 14.7124 46.0795 14.8823 46.3623 14.8823C46.4787 14.8823 46.5619 14.8823 46.5619 14.8823V15.7106C46.5619 15.7106 46.4621 15.7319 46.2958 15.7319C45.7635 15.7319 44.7322 15.5195 44.7322 13.7567V11.2717H44.7156Z" fill="#5D2E8E"/>
<path fill-rule="evenodd" clip-rule="evenodd" d="M47.8449 8.38306H48.3439C48.3938 8.38306 48.4437 8.44677 48.4437 8.51049V9.29633C48.4437 9.36005 48.3938 9.42376 48.3439 9.42376H47.8449C47.795 9.42376 47.7451 9.36005 47.7451 9.29633V8.51049C47.7451 8.42553 47.7784 8.38306 47.8449 8.38306Z" fill="#5D2E8E"/>
<path fill-rule="evenodd" clip-rule="evenodd" d="M47.7102 11.5479C47.7102 11.3992 47.6436 11.3355 47.5438 11.3355H47.2112V10.4647H47.9763C48.3422 10.4647 48.5086 10.6559 48.5086 11.1444V14.6488C48.5086 14.7975 48.5751 14.8612 48.6749 14.8612H49.0076V15.7107H48.2424C47.8765 15.7107 47.7102 15.5196 47.7102 15.0311V11.5479Z" fill="#5D2E8E"/>
<path fill-rule="evenodd" clip-rule="evenodd" d="M4.64677 6.13212L3.37348 8.03579L5.3866 13.3836L6.58132 11.6205L4.64677 6.13212Z" fill="#F9A61C"/>
<path d="M5.04908 5.57087L3.29126 7.89404L4.93051 14.0483L6.68833 11.7251L5.04908 5.57087Z" fill="#F9A61C"/>
</g>
<defs>
<clipPath id="clip0_1445_2672">
<rect width="52" height="24" fill="white" transform="translate(0.5)"/>
</clipPath>
</defs>
</svg>
