<svg width="161" height="156" viewBox="0 0 161 156" fill="none" xmlns="http://www.w3.org/2000/svg">
<g id="no result found icon">
<g id="Group 1321314124">
<g id="Group 1321314120">
<path id="Rectangle 4476" d="M138.735 43.5262C139.201 45.1159 140.867 46.0272 142.457 45.5617L152.306 42.6775C157.075 41.2809 159.809 36.2826 158.412 31.5135C157.016 26.7444 152.017 24.0105 147.248 25.4071L145.202 26.0063C139.303 27.7338 135.921 33.9165 137.649 39.8156L138.735 43.5262Z" fill="#E00E41"/>
<path id="Rectangle 4477" d="M25.4706 146.291C26.8438 145.325 27.1741 143.429 26.2082 142.056L20.2242 133.547C17.3266 129.428 11.638 128.437 7.51825 131.335C3.39853 134.232 2.40777 139.921 5.30532 144.04L6.54851 145.808C10.1327 150.904 17.1693 152.129 22.2652 148.545L25.4706 146.291Z" fill="#E00E41" fill-opacity="0.3"/>
<path id="Rectangle 4479" d="M147.963 112.255C147.195 111.073 145.614 110.737 144.431 111.505L137.106 116.263C133.559 118.567 132.551 123.31 134.855 126.857C137.159 130.404 141.902 131.412 145.449 129.108L146.971 128.119C151.358 125.269 152.605 119.402 149.755 115.015L147.963 112.255Z" fill="#E00E41" fill-opacity="0.4"/>
<path id="Rectangle 4478" d="M44.0306 15.0376C44.1564 16.512 45.4535 17.6053 46.9279 17.4795L56.0625 16.7005C60.4856 16.3233 63.7654 12.4318 63.3881 8.00873C63.0109 3.58564 59.1195 0.305817 54.6964 0.683046L52.7987 0.844896C47.3275 1.31151 43.2705 6.12504 43.7371 11.5962L44.0306 15.0376Z" fill="#E00E41" fill-opacity="0.2"/>
<ellipse id="Ellipse 2233" cx="15.8366" cy="99.9472" rx="2.90279" ry="3.87038" fill="#E00E41" fill-opacity="0.3"/>
<ellipse id="Ellipse 2234" cx="13.3961" cy="42.3053" rx="3.06288" ry="6.12575" transform="rotate(-15.1115 13.3961 42.3053)" fill="#E00E41" fill-opacity="0.6"/>
<circle id="Ellipse 2235" cx="78.0124" cy="141.26" r="4.35418" fill="#E00E41" fill-opacity="0.3"/>
<circle id="Ellipse 2236" cx="107.869" cy="7.83526" r="2.17709" fill="#E00E41" fill-opacity="0.3"/>
<circle id="Ellipse 2237" cx="144.736" cy="77.9499" r="2.17709" fill="#E00E41" fill-opacity="0.3"/>
</g>
<g id="Group 1321314123">
<circle id="Ellipse 2239" cx="85.0588" cy="75" r="55" fill="#E00E41"/>
<g id="Group 1321314122">
<path id="Vector" d="M85.0867 46C69.0517 46 56.0588 58.9929 56.0588 75.0279C56.0588 91.0628 69.0517 104.056 85.0867 104.056C101.122 104.056 114.115 91.0628 114.115 75.0279C114.115 58.9929 101.122 46 85.0867 46ZM85.0867 101.637C70.4141 101.637 58.4778 89.7005 58.4778 75.0279C58.4778 60.3552 70.4141 48.419 85.0867 48.419C99.7583 48.419 111.696 60.3552 111.696 75.0279C111.696 76.3409 111.596 77.6307 111.411 78.8944C110.6 73.4178 105.905 68.4772 105.905 68.4772C105.905 68.4772 100.266 74.3921 100.266 80.4512C100.266 86.5984 106.452 88.1881 109.66 85.2282C105.649 94.8519 96.1473 101.637 85.0867 101.637Z" fill="white"/>
<path id="Vector_2" d="M91.3741 82.7686C94.046 82.7686 96.2121 80.6026 96.2121 77.9306C96.2121 75.2587 94.046 73.0927 91.3741 73.0927C88.7022 73.0927 86.5361 75.2587 86.5361 77.9306C86.5361 80.6026 88.7022 82.7686 91.3741 82.7686Z" fill="white"/>
<path id="Vector_3" d="M69.1195 82.7686C71.7914 82.7686 73.9574 80.6026 73.9574 77.9306C73.9574 75.2587 71.7914 73.0927 69.1195 73.0927C66.4475 73.0927 64.2815 75.2587 64.2815 77.9306C64.2815 80.6026 66.4475 82.7686 69.1195 82.7686Z" fill="white"/>
<path id="Vector_4" d="M75.4029 64.9455C75.9264 64.4917 74.4634 62.9513 74.0347 63.3258C72.4877 64.6317 70.6717 65.5804 68.7161 66.1044C66.7605 66.6284 64.7134 66.7147 62.7207 66.3572C62.1614 66.2479 61.6679 68.3128 62.3481 68.4434C64.6475 68.8562 67.0096 68.7567 69.2661 68.1521C71.5226 67.5475 73.618 66.4526 75.4029 64.9455ZM97.7747 66.2102C93.7418 66.9339 89.5937 65.8231 86.4625 63.1787C86.0339 62.8023 84.5709 64.3446 85.0963 64.7984C86.8813 66.3055 88.9767 67.4003 91.2332 68.0049C93.4897 68.6095 95.8517 68.709 98.1511 68.2963C98.8313 68.1657 98.3359 66.0999 97.7747 66.2102ZM90.9638 89.8611C85.3846 88.3623 79.3052 89.447 74.5824 92.7774C73.4165 93.6183 75.6013 96.6739 76.7614 95.8273C79.88 93.6328 84.8428 92.1175 89.9788 93.4741C91.3557 93.8389 92.4326 90.2733 90.9638 89.8611Z" fill="white"/>
</g>
</g>
</g>
</g>
</svg>
